# Blender 4.2.0
# www.blender.org
mtllib EYELID_P.mtl
o EYELID_P
v 0.015300 0.000000 0.004680
v 0.013020 -0.008400 0.003980
v 0.011570 0.006800 0.008710
v 0.010680 -0.002600 0.011630
v 0.006840 -0.014300 0.002090
v 0.004380 0.011600 0.010140
v 0.002860 -0.004400 0.015110
v 0.008040 0.013600 0.002460
v 0.004260 0.004200 0.014830
v 0.005710 -0.011000 0.010110
v 0.014720 -0.004400 0.004500
v 0.013970 0.003500 0.006960
v 0.013500 -0.001400 0.008480
v 0.013680 0.007200 0.004180
v 0.011700 0.002200 0.010690
v 0.012460 -0.005800 0.008210
v 0.010320 -0.011800 0.003150
v 0.008290 0.009600 0.009790
v 0.007040 -0.003700 0.013890
v 0.008320 0.005800 0.012380
v 0.008610 -0.007200 0.011430
v 0.009840 -0.010200 0.007410
v 0.010310 0.010700 0.005870
v 0.007850 0.000800 0.013910
v 0.004490 0.008200 0.012980
v 0.004460 -0.008000 0.013110
v 0.006520 -0.013200 0.006340
v 0.006460 0.013100 0.006550
v 0.003700 -0.000100 0.015560
v 0.003470 0.015200 0.003780
v 0.001530 0.013900 0.007730
v 0.000310 0.010900 0.011700
v 0.000250 0.007200 0.014310
v -0.000220 0.002200 0.015850
v -0.000940 -0.002300 0.015800
v -0.000480 -0.007200 0.014280
v 0.001010 -0.010700 0.011820
v 0.002240 -0.013800 0.007800
v 0.002810 -0.015400 0.003550
v 0.014800 -0.004200 0.004240
v 0.015340 -0.000100 0.004400
v 0.013120 -0.008300 0.003760
v 0.014730 -0.004500 0.004220
v 0.015320 0.000400 0.004390
v 0.014800 0.003500 0.004240
v 0.013730 0.007100 0.003940
v 0.013860 0.006800 0.003980
v 0.012980 -0.008500 0.003720
v 0.011130 0.010700 0.003190
v 0.008260 0.013400 0.002370
v 0.013510 0.007500 0.003870
v 0.010410 -0.011700 0.002990
v 0.006910 -0.014300 0.001980
v 0.010260 -0.011900 0.002940
v 0.008080 0.013600 0.002320
v 0.006720 -0.014400 0.001930
v 0.007880 0.013700 0.002260
v 0.003580 -0.015400 0.001030
v 0.004250 0.015200 0.001220
v -0.001320 0.015200 0.004850
v -0.001270 0.015200 0.004690
v -0.003640 0.009300 0.012450
v -0.003610 0.009500 0.012350
v -0.004520 -0.000100 0.015320
v -0.004520 0.000100 0.015320
v -0.003620 -0.009500 0.012360
v -0.003650 -0.009300 0.012460
v -0.001270 -0.015200 0.004680
v -0.001320 -0.015200 0.004840
v -0.002570 0.013000 0.008940
v -0.002620 0.012900 0.009110
v -0.004280 0.005000 0.014540
v -0.004300 0.004800 0.014600
v -0.004300 -0.004800 0.014600
v -0.004280 -0.005000 0.014540
v -0.002620 -0.012900 0.009090
v -0.002580 -0.013000 0.008950
v 0.000120 -0.016000 0.000150
v 0.000120 0.016000 0.000130
v 0.000150 -0.016000 0.000040
v 0.000150 0.016000 0.000040
vn -0.9712 0.1664 -0.1707
vn -0.9180 0.2815 -0.2792
vn -0.9607 0.0214 -0.2766
vn -0.9607 0.0215 -0.2766
vn -0.9852 0.0393 -0.1670
vn -0.8623 0.4713 -0.1853
vn -0.7970 0.5397 -0.2711
vn -0.9180 0.2816 -0.2792
vn -0.9370 0.3146 -0.1519
vn -0.9712 0.1665 -0.1707
vn -0.9370 0.3145 -0.1519
vn -0.9621 -0.1349 -0.2369
vn -0.9852 0.0392 -0.1670
vn -0.8894 -0.2038 -0.4092
vn -0.9300 -0.2449 -0.2742
vn -0.9621 -0.1349 -0.2370
vn -0.7243 -0.4242 -0.5436
vn -0.8624 -0.4581 -0.2155
vn -0.8893 -0.2039 -0.4093
vn -0.8507 0.0810 -0.5194
vn -0.8894 -0.2038 -0.4093
vn -0.9607 0.0214 -0.2767
vn -0.7226 -0.1411 -0.6767
vn -0.7242 -0.4242 -0.5437
vn -0.8893 -0.2038 -0.4093
vn -0.6677 0.1619 -0.7266
vn -0.9180 0.2815 -0.2793
vn -0.7709 0.3725 -0.5167
vn -0.6676 0.1620 -0.7266
vn -0.9180 0.2816 -0.2793
vn -0.7709 0.3726 -0.5167
vn -0.7198 -0.6778 -0.1499
vn -0.6542 -0.6678 -0.3549
vn -0.5439 -0.8211 -0.1731
vn -0.5439 -0.8212 -0.1729
vn -0.6937 -0.7145 -0.0911
vn -0.7198 -0.6778 -0.1498
vn -0.8623 -0.4582 -0.2155
vn -0.7242 -0.4242 -0.5436
vn -0.6543 -0.6678 -0.3549
vn -0.7199 -0.6777 -0.1499
vn -0.8346 -0.5482 -0.0539
vn -0.5257 -0.3483 -0.7761
vn -0.4983 -0.0613 -0.8649
vn -0.2672 -0.2619 -0.9274
vn -0.6676 0.1619 -0.7267
vn -0.4983 -0.0613 -0.8648
vn -0.5459 0.4528 -0.7049
vn -0.6200 0.6283 -0.4699
vn -0.3540 0.6870 -0.6346
vn -0.7708 0.3726 -0.5167
vn -0.7970 0.5398 -0.2711
vn -0.6201 0.6283 -0.4698
vn -0.5460 0.4528 -0.7049
vn -0.6201 0.6283 -0.4699
vn -0.5460 0.4527 -0.7049
vn -0.6505 0.7281 -0.2163
vn -0.4127 0.8256 -0.3847
vn -0.3539 0.6870 -0.6346
vn -0.6504 0.7281 -0.2163
vn -0.4128 0.8256 -0.3847
vn -0.4237 0.8657 -0.2666
vn -0.6505 0.7281 -0.2162
vn -0.7970 0.5398 -0.2710
vn -0.7758 0.6223 -0.1044
vn -0.7783 0.6250 -0.0606
vn -0.4774 0.8407 -0.2554
vn -0.6631 0.7321 -0.1558
vn -0.4775 0.8407 -0.2554
vn -0.6632 0.7320 -0.1557
vn -0.5090 -0.6047 -0.6126
vn -0.6542 -0.6678 -0.3550
vn -0.3997 -0.8149 -0.4197
vn -0.2696 -0.7257 -0.6330
vn -0.5089 -0.6048 -0.6126
vn -0.5257 -0.3484 -0.7761
vn -0.2804 -0.5232 -0.8048
vn -0.5089 -0.6047 -0.6126
vn -0.4262 0.2317 -0.8744
vn -0.4983 -0.0612 -0.8648
vn -0.6676 0.1620 -0.7267
vn -0.2293 0.0201 -0.9732
vn -0.4982 -0.0613 -0.8649
vn -0.4262 0.2317 -0.8745
vn -0.2293 0.0202 -0.9731
vn -0.1789 0.2765 -0.9442
vn -0.2293 0.0202 -0.9732
vn -0.5460 0.4527 -0.7050
vn -0.2713 0.4928 -0.8268
vn -0.5459 0.4527 -0.7050
vn -0.2713 0.4929 -0.8267
vn -0.5459 0.4528 -0.7050
vn -0.3996 -0.8149 -0.4197
vn -0.1047 -0.8628 -0.4946
vn -0.2083 -0.9589 -0.1926
vn -0.3996 -0.8150 -0.4197
vn -0.5438 -0.8212 -0.1729
vn -0.3997 -0.8150 -0.4196
vn -0.0073 -0.4388 -0.8986
vn -0.0364 -0.6803 -0.7320
vn -0.2803 -0.5232 -0.8048
vn -0.0364 -0.6804 -0.7320
vn -0.2292 0.0202 -0.9732
vn -0.1788 0.2765 -0.9442
vn 0.0481 0.1507 -0.9874
vn 0.0443 -0.1477 -0.9880
vn -0.2292 0.0201 -0.9732
vn 0.0442 -0.1477 -0.9880
vn -0.2712 0.4929 -0.8267
vn -0.3539 0.6870 -0.6347
vn -0.0642 0.6790 -0.7314
vn 0.0522 0.4242 -0.9041
vn -0.2712 0.4929 -0.8268
vn -0.0642 0.6789 -0.7314
vn -0.2712 0.4928 -0.8268
vn 0.0522 0.4241 -0.9041
vn -0.4127 0.8257 -0.3847
vn -0.2077 0.9507 -0.2302
vn -0.1362 0.8739 -0.4666
vn -0.3539 0.6871 -0.6346
vn -0.3480 0.9146 -0.2059
vn -0.1993 0.9780 -0.0609
vn -0.2077 0.9507 -0.2301
vn -0.1063 0.9902 -0.0908
vn -0.1191 0.9703 -0.2107
vn -0.2076 0.9508 -0.2302
vn -0.1587 0.9861 -0.0486
vn -0.1063 0.9902 -0.0907
vn -0.1064 0.9902 -0.0907
vn -0.2076 0.9507 -0.2302
vn -0.2358 -0.9690 -0.0739
vn -0.3809 -0.9169 -0.1188
vn -0.0178 -0.9956 -0.0920
vn -0.1298 -0.9868 -0.0973
vn -0.2082 -0.9589 -0.1926
vn -0.2695 -0.7257 -0.6330
vn -0.0140 -0.8446 -0.5352
vn -0.0065 -0.9616 -0.2744
vn 0.0197 -0.7811 -0.6241
vn -0.1047 -0.8628 -0.4947
vn -0.0364 -0.6804 -0.7319
vn 0.0715 -0.5781 -0.8128
vn 0.0198 -0.7811 -0.6241
vn -0.0363 -0.6804 -0.7320
vn 0.0443 -0.1478 -0.9880
vn 0.1279 -0.3469 -0.9291
vn 0.0863 -0.4887 -0.8681
vn 0.1539 -0.2206 -0.9631
vn 0.1279 -0.3469 -0.9292
vn 0.1279 -0.3468 -0.9292
vn -0.0073 -0.4387 -0.8986
vn 0.1598 -0.0788 -0.9840
vn 0.0481 0.1508 -0.9874
vn 0.1469 0.2489 -0.9573
vn 0.1601 0.0490 -0.9859
vn 0.1510 0.3690 -0.9171
vn 0.1468 0.2489 -0.9573
vn 0.2039 0.4489 -0.8700
vn -0.0642 0.6790 -0.7313
vn 0.0269 0.7724 -0.6345
vn 0.1232 0.5867 -0.8004
vn -0.0641 0.6790 -0.7314
vn 0.0166 0.8524 -0.5227
vn 0.0268 0.7725 -0.6345
vn -0.1350 0.9487 -0.2860
vn -0.9285 -0.3492 -0.1261
vn -0.8624 -0.4581 -0.2154
vn -0.8956 -0.4444 0.0201
vn -0.9285 -0.3491 -0.1262
vn -0.9300 -0.2450 -0.2741
vn -0.9300 -0.2450 -0.2742
vn -0.8894 -0.2039 -0.4092
vn -0.7758 0.6222 -0.1044
vn -0.8623 0.4714 -0.1852
vn -0.8624 -0.4582 -0.2154
vn -0.8346 -0.5481 -0.0538
vn -0.6937 -0.7145 -0.0912
vn -0.5719 -0.8102 -0.1289
vn -0.5718 -0.8102 -0.1289
vn -0.3809 -0.9170 -0.1188
vn -0.0178 -0.9956 -0.0919
vn -0.2083 -0.9589 -0.1925
vn 0.0862 -0.4887 -0.8682
vn 0.0714 -0.5780 -0.8129
vn 0.0863 -0.4888 -0.8681
vn 0.1601 0.0489 -0.9859
vn 0.1598 -0.0787 -0.9840
vn 0.1232 0.5866 -0.8004
vn -0.1192 0.9703 -0.2107
vn -0.1351 0.9487 -0.2859
vn -0.1191 0.9703 -0.2108
vn -0.1762 -0.9829 -0.0539
vn -0.2362 -0.9690 -0.0722
vn -0.2363 -0.9690 -0.0722
s 0
usemtl Material__1
f 40//1 11//2 1//3
f 1//4 41//5 40//1
f 42//6 2//7 11//8
f 11//8 43//9 42//6
f 40//10 43//11 11//8
f 44//12 41//13 1//3
f 12//14 45//15 44//16
f 44//16 1//3 12//14
f 3//17 14//18 12//19
f 13//20 12//21 1//22
f 15//23 3//24 12//19
f 13//20 15//23 12//25
f 4//26 15//23 13//20
f 11//27 13//20 1//3
f 16//28 4//29 13//20
f 11//30 16//28 13//20
f 2//7 16//31 11//30
f 49//32 23//33 8//34
f 8//35 50//36 49//37
f 14//38 3//39 23//40
f 14//38 23//40 49//41
f 49//41 51//42 14//38
f 20//43 24//44 9//45
f 15//23 4//46 24//47
f 20//43 15//23 24//47
f 3//24 15//23 20//43
f 21//48 22//49 10//50
f 16//51 2//52 22//53
f 21//54 16//51 22//55
f 4//29 16//51 21//56
f 17//57 22//53 2//52
f 27//58 10//59 22//55
f 17//60 27//61 22//53
f 5//62 27//58 17//60
f 17//63 2//64 48//65
f 48//65 52//66 17//63
f 53//67 5//62 17//60
f 17//60 54//68 53//69
f 52//66 54//70 17//63
f 18//71 23//72 3//39
f 28//73 8//35 23//33
f 18//71 28//73 23//72
f 6//74 28//73 18//75
f 20//76 18//71 3//24
f 25//77 6//74 18//78
f 20//76 25//77 18//78
f 9//45 25//77 20//43
f 19//79 24//80 4//81
f 29//82 9//45 24//83
f 19//84 29//85 24//44
f 7//86 29//87 19//84
f 21//88 19//79 4//81
f 26//89 7//86 19//84
f 21//90 26//89 19//79
f 10//59 26//91 21//92
f 28//93 6//74 31//94
f 30//95 28//96 31//94
f 8//97 28//98 30//95
f 25//77 9//45 33//99
f 32//100 25//101 33//99
f 6//74 25//101 32//102
f 29//103 7//104 35//105
f 34//106 29//107 35//105
f 9//45 29//107 34//108
f 26//109 10//110 37//111
f 36//112 26//113 37//114
f 7//104 26//115 36//116
f 27//117 5//62 39//118
f 38//119 27//58 39//118
f 10//120 27//58 38//119
f 39//118 5//62 56//121
f 56//121 58//122 39//123
f 78//124 68//125 39//126
f 58//122 80//127 78//128
f 78//129 39//130 58//122
f 30//95 59//131 57//132
f 57//132 8//97 30//95
f 61//133 79//134 30//135
f 32//102 31//94 6//136
f 70//137 60//138 31//94
f 32//102 71//139 70//137
f 70//137 31//140 32//141
f 63//142 71//143 32//144
f 34//145 33//99 9//45
f 72//146 62//147 33//99
f 34//145 73//148 72//149
f 72//150 33//151 34//145
f 65//152 73//148 34//145
f 36//116 35//153 7//104
f 74//154 64//155 35//105
f 36//116 75//156 74//157
f 74//157 35//153 36//116
f 67//158 75//156 36//116
f 38//119 37//159 10//59
f 76//160 66//161 37//162
f 38//119 77//163 76//164
f 76//164 37//159 38//119
f 69//165 77//163 38//119
f 47//166 14//167 46//168
f 14//18 47//169 45//170
f 45//171 12//172 14//18
f 48//173 2//64 42//174
f 46//168 14//175 51//176
f 50//177 8//35 55//178
f 56//121 5//62 53//67
f 55//179 8//97 57//180
f 60//138 61//181 30//182
f 30//95 31//94 60//138
f 62//183 63//184 32//100
f 32//100 33//99 62//185
f 64//186 65//187 34//106
f 34//106 35//105 64//186
f 66//188 67//158 36//116
f 36//112 37//114 66//161
f 68//189 69//190 38//119
f 38//119 39//130 68//191
f 79//134 81//192 59//193
f 59//194 30//182 79//134
