# Blender 4.2.0
# www.blender.org
mtllib L_SHOULDER_R.mtl
o object__0
v 0.036740 -0.023500 -0.024090
v 0.035460 -0.024600 -0.010330
v 0.033960 -0.025700 -0.024350
v 0.035440 -0.024700 -0.024220
v -0.027150 0.000500 0.022740
v -0.026910 0.009100 0.020350
v -0.028050 0.009100 0.019930
v -0.028780 0.000600 0.022180
v -0.029140 0.009000 0.019370
v -0.030300 0.000600 0.021250
v -0.030130 0.008800 0.018700
v -0.031630 0.000700 0.020170
v -0.025480 0.000700 0.022920
v -0.025090 0.009700 0.020400
v -0.025950 0.015900 0.014890
v -0.027390 0.013400 0.017000
v -0.027490 0.015300 0.015030
v -0.028150 0.013400 0.016660
v -0.028520 0.013300 0.016470
v -0.024790 -0.009700 0.021110
v -0.026390 -0.009700 0.021050
v -0.028160 -0.009700 0.020510
v -0.029820 -0.009600 0.019570
v -0.031230 -0.009300 0.018440
v -0.034130 0.011300 0.011560
v -0.036770 0.001900 0.012270
v -0.027380 0.019500 0.008650
v -0.028800 0.018900 0.009020
v -0.030950 0.016800 0.010130
v -0.023870 -0.016800 0.016430
v -0.025240 -0.017000 0.016220
v -0.026560 -0.017100 0.015700
v -0.027830 -0.017100 0.015000
v -0.028990 -0.016900 0.014210
v -0.036620 -0.008300 0.010220
v -0.024470 -0.022100 0.010220
v -0.025730 -0.021600 0.010570
v 0.041400 0.004100 -0.062490
v 0.036080 -0.020600 -0.063560
v 0.033950 -0.019500 -0.067100
v 0.038590 0.003900 -0.066890
v -0.026050 -0.020200 0.012340
v -0.026470 -0.020200 0.012110
v -0.026890 -0.020100 0.011870
v -0.032960 -0.018100 0.006360
v -0.036030 0.016100 0.000880
v -0.039920 0.004300 0.000870
v -0.028060 0.023800 0.001900
v -0.029330 0.023900 0.000660
v -0.031790 0.021500 0.000850
v -0.025200 -0.025800 0.000340
v -0.026550 -0.025300 0.000610
v -0.028910 -0.023200 0.002610
v -0.039870 -0.008100 -0.001640
v -0.037200 0.018300 -0.011900
v -0.041390 0.005700 -0.013060
v -0.024470 0.027000 0.000620
v -0.025000 0.028000 -0.000740
v -0.033020 0.024300 -0.011640
v -0.030420 0.026800 -0.011590
v -0.035490 -0.018600 -0.005200
v -0.040690 -0.009100 -0.013180
v -0.036970 0.019000 -0.033230
v -0.040900 0.006300 -0.034130
v -0.017520 0.030400 0.001710
v -0.017930 0.031800 0.000130
v -0.025640 0.030600 -0.011900
v -0.032930 0.025700 -0.032890
v -0.030360 0.028700 -0.032710
v -0.024120 -0.027400 -0.011210
v -0.025650 -0.027000 -0.011270
v -0.029300 -0.024800 -0.009220
v 0.037390 0.013200 -0.066830
v 0.040250 0.013700 -0.062500
v -0.035710 -0.019200 -0.015240
v -0.040030 -0.010000 -0.034740
v -0.035840 0.018100 -0.053490
v -0.039270 0.005900 -0.053350
v -0.004560 0.033100 0.002400
v -0.004720 0.034600 0.000880
v -0.017960 0.034500 -0.010020
v -0.025500 0.032600 -0.032530
v -0.032080 0.025000 -0.053490
v -0.029690 0.028100 -0.053440
v -0.028760 -0.025300 -0.018430
v -0.024900 -0.027800 -0.020030
v -0.023130 -0.028200 -0.020260
v -0.034890 -0.020200 -0.035990
v -0.038740 -0.011100 -0.054290
v -0.035090 0.017400 -0.062250
v -0.038280 0.005200 -0.062510
v 0.018490 0.033000 0.002580
v 0.018560 0.034100 0.000990
v -0.005040 0.037000 -0.008210
v 0.033860 -0.023900 -0.063710
v 0.031770 -0.022800 -0.067120
v -0.017830 0.036500 -0.027710
v -0.024560 0.032700 -0.053500
v -0.031430 0.024100 -0.062060
v -0.029130 0.027100 -0.061860
v -0.022410 -0.028600 -0.030840
v -0.023960 -0.028200 -0.032300
v -0.028120 -0.026500 -0.033490
v 0.043110 0.002600 -0.048140
v 0.036470 -0.022000 -0.048530
v -0.032790 -0.022600 -0.052970
v -0.037890 -0.011100 -0.062250
v -0.033210 0.015700 -0.066810
v -0.035580 0.005200 -0.067070
v 0.018730 0.036200 -0.008320
v -0.004770 0.039400 -0.026430
v -0.017000 0.037500 -0.048070
v -0.024050 0.031700 -0.062370
v -0.029380 0.021600 -0.067040
v -0.027280 0.024600 -0.067020
v -0.017730 -0.029600 -0.034780
v -0.017900 -0.030000 -0.036750
v -0.026610 -0.028000 -0.051170
v -0.022970 -0.029800 -0.050310
v -0.031590 -0.023300 -0.062590
v -0.035260 -0.010200 -0.067150
v 0.031700 0.028400 0.002190
v 0.032490 0.029100 -0.000200
v 0.018580 0.038300 -0.026730
v -0.004310 0.041000 -0.047180
v -0.016150 0.037300 -0.061630
v -0.022360 0.028600 -0.067240
v 0.002790 -0.030600 -0.037730
v 0.003370 -0.031200 -0.040020
v -0.016720 -0.031900 -0.049610
v -0.025250 -0.028700 -0.062640
v -0.021570 -0.030500 -0.062560
v -0.029460 -0.021700 -0.067140
v 0.037430 0.019100 0.012730
v 0.035650 0.021000 0.011490
v 0.035490 0.011200 0.021160
v 0.037740 0.011200 0.020260
v 0.038930 0.021000 0.006010
v 0.034810 0.022900 -0.066650
v 0.037040 0.024200 -0.062110
v 0.032550 0.030200 -0.008780
v 0.018530 0.040000 -0.047560
v -0.002640 0.041500 -0.060910
v -0.014620 0.034300 -0.067100
v 0.003400 -0.033900 -0.051350
v -0.015160 -0.032500 -0.062970
v -0.023420 -0.025800 -0.067290
v -0.020230 -0.027700 -0.067250
v 0.041970 0.013600 -0.048000
v 0.035140 -0.003400 0.023830
v 0.037780 -0.003300 0.022990
v 0.040640 0.010400 0.016100
v 0.039540 0.022700 -0.008720
v 0.031820 0.031800 -0.024460
v 0.018080 0.040100 -0.061850
v -0.001980 0.038000 -0.066920
v 0.034150 -0.017200 0.015950
v 0.036340 -0.016700 0.016250
v 0.024560 -0.028400 -0.032150
v 0.025640 -0.029100 -0.034850
v 0.003600 -0.036000 -0.063770
v -0.014070 -0.029600 -0.067240
v 0.041030 -0.003600 0.017710
v 0.042950 0.010800 0.006080
v 0.039310 0.023300 -0.024820
v 0.030970 0.033100 -0.045750
v 0.017240 0.037300 -0.066660
v 0.033870 -0.022500 0.005450
v 0.036780 -0.021500 0.006600
v 0.025890 -0.030500 -0.063910
v 0.024330 -0.028800 -0.067270
v 0.025570 -0.030900 -0.050140
v 0.003370 -0.033400 -0.067410
v 0.043870 -0.000200 0.006940
v 0.043660 0.011800 -0.009090
v 0.038110 0.024600 -0.046190
v 0.029870 0.033300 -0.061760
v 0.032520 -0.025000 -0.010880
v 0.033590 -0.025400 -0.048510
v 0.031230 -0.026200 -0.023330
v 0.044750 0.000400 -0.009460
v 0.043090 0.013000 -0.025230
v 0.027920 0.031000 -0.066710
v 0.044510 0.001100 -0.023130
vn 0.6208 -0.7839 -0.0049
vn -0.0545 -0.0490 0.9973
vn -0.3337 0.2610 0.9058
vn -0.2983 0.2681 0.9161
vn -0.4598 0.2639 0.8479
vn -0.5047 0.2543 0.8250
vn -0.5768 0.2535 0.7766
vn -0.5992 0.2490 0.7609
vn -0.1161 0.2725 0.9551
vn -0.1350 0.2688 0.9537
vn -0.2278 0.6290 0.7433
vn 0.0739 0.6180 0.7827
vn -0.2099 0.6984 0.6842
vn -0.7815 0.4288 0.4532
vn -0.2842 0.5693 0.7714
vn -0.4118 0.5877 0.6965
vn 0.8897 0.0769 0.4499
vn -0.5473 0.5247 0.6520
vn -0.4971 0.5215 0.6935
vn -0.4762 0.6620 0.5788
vn -0.0846 -0.1763 0.9807
vn -0.0370 -0.1660 0.9854
vn -0.3295 -0.1782 0.9272
vn -0.2876 -0.1701 0.9425
vn -0.5145 -0.1673 0.8410
vn -0.4935 -0.1639 0.8541
vn -0.6298 -0.1550 0.7612
vn -0.6377 -0.1560 0.7543
vn -0.8060 0.2469 0.5380
vn -0.7898 0.2636 0.5539
vn -0.2666 0.8071 0.5267
vn -0.2065 0.8189 0.5355
vn -0.6624 0.5093 0.5494
vn -0.6595 0.5220 0.5409
vn -0.5031 0.6604 0.5574
vn -0.4361 0.7269 0.5305
vn -0.0312 -0.5529 0.8327
vn -0.0460 -0.5562 0.8297
vn -0.2414 -0.5616 0.7914
vn -0.2650 -0.5651 0.7813
vn -0.4350 -0.5550 0.7091
vn -0.4026 -0.5518 0.7304
vn -0.5969 -0.5270 0.6049
vn -0.5390 -0.5253 0.6584
vn -0.8402 -0.1249 0.5277
vn -0.8369 -0.1197 0.5342
vn 0.0117 -0.7611 0.6485
vn -0.1273 -0.7637 0.6328
vn 0.8247 -0.1541 -0.5441
vn 0.8351 -0.1609 -0.5260
vn -0.1910 -0.7530 0.6297
vn 0.9227 -0.2033 0.3276
vn -0.3365 -0.7170 0.6105
vn -0.3348 -0.7169 0.6115
vn -0.4798 -0.7016 0.5268
vn -0.4723 -0.7008 0.5345
vn -0.3047 -0.7731 0.5564
vn -0.4503 -0.7577 0.4724
vn -0.7628 -0.4713 0.4428
vn -0.7603 -0.4633 0.4553
vn -0.9160 0.2790 0.2884
vn -0.9024 0.2972 0.3119
vn -0.2040 0.8162 0.5405
vn -0.4143 0.7693 0.4864
vn -0.7569 0.5352 0.3752
vn -0.7331 0.5776 0.3589
vn -0.5108 0.7475 0.4248
vn -0.6116 0.6613 0.4343
vn -0.2578 -0.8984 0.3555
vn -0.2614 -0.8976 0.3550
vn -0.5976 -0.6904 0.4078
vn -0.5759 -0.7292 0.3697
vn -0.5514 -0.7475 0.3705
vn -0.4446 -0.8271 0.3439
vn -0.9653 -0.0650 0.2530
vn -0.9631 -0.0571 0.2630
vn -0.9405 0.3099 0.1395
vn -0.9444 0.3021 0.1300
vn -0.4550 0.7200 0.5240
vn -0.4101 0.6512 0.6386
vn -0.7738 0.6086 0.1756
vn -0.8074 0.5537 0.2036
vn -0.6716 0.7061 0.2244
vn -0.6774 0.7000 0.2260
vn -0.8772 -0.4195 0.2333
vn -0.8749 -0.4363 0.2103
vn -0.9944 -0.0247 0.1025
vn -0.9960 -0.0477 0.0749
vn -0.9489 0.3155 0.0001
vn -0.9549 0.2965 -0.0138
vn -0.4167 0.6472 0.6383
vn -0.4167 0.6240 0.6610
vn -0.6283 0.7427 0.2317
vn -0.5993 0.7714 0.2141
vn -0.8207 0.5713 0.0099
vn -0.8566 0.5150 0.0303
vn -0.6929 0.7197 0.0445
vn -0.7599 0.6476 0.0561
vn -0.3280 -0.9394 0.0995
vn -0.2555 -0.9596 0.1180
vn -0.6999 -0.6904 0.1830
vn -0.6618 -0.7397 0.1219
vn 0.8251 0.0983 -0.5563
vn 0.8353 0.1112 -0.5385
vn -0.5973 -0.7920 0.1268
vn -0.4770 -0.8744 0.0890
vn -0.9058 -0.4118 0.1000
vn -0.8921 -0.4494 0.0464
vn -0.9986 -0.0470 -0.0246
vn -0.9982 -0.0522 -0.0284
vn -0.9519 0.2993 -0.0664
vn -0.9593 0.2687 -0.0869
vn -0.1843 0.7114 0.6782
vn -0.1859 0.6895 0.7000
vn -0.4826 0.8465 0.2249
vn -0.4845 0.8450 0.2262
vn -0.6181 0.7831 0.0687
vn -0.6259 0.7767 0.0710
vn -0.8526 0.5177 -0.0706
vn -0.8769 0.4778 -0.0524
vn -0.7568 0.6515 -0.0534
vn -0.7909 0.6104 -0.0432
vn -0.6873 -0.7240 0.0583
vn -0.6591 -0.7521 0.0022
vn -0.5092 -0.8605 0.0169
vn -0.5341 -0.8448 0.0314
vn -0.2546 -0.9653 0.0575
vn -0.2111 -0.9749 0.0710
vn -0.8976 -0.4407 -0.0091
vn -0.8936 -0.4486 -0.0137
vn -0.9953 -0.0500 -0.0834
vn -0.9976 -0.0275 -0.0643
vn -0.9578 0.2681 -0.1034
vn -0.9595 0.2535 -0.1231
vn -0.0024 0.7116 0.7025
vn 0.0150 0.8220 0.5693
vn -0.2143 0.9438 0.2517
vn -0.2181 0.9417 0.2563
vn 0.6946 -0.4414 -0.5681
vn 0.6936 -0.4548 -0.5586
vn -0.4672 0.8803 0.0822
vn -0.4975 0.8624 0.0938
vn -0.6243 0.7800 -0.0428
vn -0.6675 0.7441 -0.0264
vn -0.8725 0.4754 -0.1127
vn -0.8703 0.4787 -0.1163
vn -0.7850 0.6072 -0.1233
vn -0.7834 0.6089 -0.1244
vn -0.2176 -0.9758 0.0221
vn -0.2601 -0.9655 0.0116
vn -0.6569 -0.7539 0.0104
vn -0.6866 -0.7265 0.0287
vn -0.5299 -0.8469 0.0450
vn -0.3786 -0.9256 0.0012
vn 0.9645 -0.2596 -0.0492
vn 0.9696 -0.2029 -0.1368
vn -0.8942 -0.4464 -0.0339
vn -0.8852 -0.4631 -0.0440
vn -0.9941 -0.0252 -0.1055
vn -0.9940 -0.0255 -0.1061
vn -0.8644 0.2355 -0.4442
vn -0.8426 0.2026 -0.4989
vn 0.0196 0.9669 0.2546
vn 0.0338 0.9748 0.2205
vn -0.2035 0.9730 0.1085
vn -0.2267 0.9661 0.1239
vn -0.4453 0.8952 -0.0157
vn -0.5456 0.8379 0.0189
vn -0.6626 0.7373 -0.1316
vn -0.6729 0.7297 -0.1210
vn -0.7657 0.4318 -0.4767
vn -0.7238 0.4494 -0.5236
vn -0.6517 0.5355 -0.5371
vn -0.7095 0.5000 -0.4966
vn -0.2284 -0.9733 -0.0242
vn -0.1348 -0.9687 0.2083
vn -0.6847 -0.7286 0.0183
vn -0.6592 -0.7519 0.0075
vn -0.3889 -0.9202 0.0449
vn -0.4529 -0.8899 0.0542
vn -0.8798 -0.4660 -0.0939
vn -0.8867 -0.4557 -0.0774
vn -0.8601 -0.0287 -0.5093
vn -0.8798 -0.0158 -0.4751
vn 0.2884 0.7814 0.5533
vn 0.3419 0.8653 0.3665
vn 0.0340 0.9908 0.1310
vn 0.0482 0.9924 0.1128
vn -0.2202 0.9747 0.0389
vn -0.2697 0.9605 0.0681
vn -0.4659 0.8759 -0.1255
vn -0.5746 0.8170 -0.0481
vn -0.6041 0.6104 -0.5123
vn -0.5299 0.6200 -0.5786
vn -0.0189 -0.9795 0.2005
vn -0.0163 -0.9682 0.2496
vn -0.2342 -0.9694 0.0733
vn -0.3275 -0.9386 0.1086
vn -0.6534 -0.7566 -0.0265
vn -0.6483 -0.7608 -0.0304
vn -0.4437 -0.8962 0.0021
vn -0.4394 -0.8983 0.0011
vn -0.7800 -0.3891 -0.4901
vn -0.7734 -0.3905 -0.4994
vn 0.2427 0.6794 0.6925
vn 0.2761 0.6688 0.6903
vn 0.5661 0.7515 0.3388
vn 0.8306 0.2720 -0.4859
vn 0.8013 0.2234 -0.5550
vn 0.5097 0.7655 0.3927
vn 0.5841 0.7325 0.3496
vn 0.3461 0.9138 0.2124
vn 0.3987 0.9093 0.1194
vn 0.0479 0.9958 0.0778
vn 0.0449 0.9957 0.0812
vn -0.2637 0.9641 -0.0308
vn -0.2968 0.9549 -0.0013
vn -0.4312 0.6858 -0.5862
vn -0.5005 0.6924 -0.5197
vn -0.0338 -0.9891 0.1430
vn -0.0764 -0.9700 0.2309
vn -0.3202 -0.9472 0.0175
vn -0.2974 -0.9547 0.0082
vn -0.5652 -0.6590 -0.4963
vn -0.4622 -0.6593 -0.5931
vn -0.3442 -0.7299 -0.5906
vn -0.4221 -0.7202 -0.5506
vn 0.9878 0.1038 -0.1165
vn 0.9874 0.1182 -0.1053
vn 0.3667 0.1589 0.9167
vn 0.2923 0.1777 0.9397
vn 0.7685 0.4570 0.4478
vn 0.7448 0.6612 0.0900
vn 0.7268 0.6782 0.1084
vn 0.3990 0.9114 0.1007
vn 0.4296 0.9002 0.0719
vn 0.0444 0.9981 0.0417
vn 0.0676 0.9977 0.0049
vn -0.2290 0.8251 -0.5166
vn -0.2353 0.8284 -0.5083
vn -0.0058 -0.4955 0.8686
vn 0.2856 -0.4549 0.8435
vn 0.0307 -0.9650 0.2606
vn 0.0301 -0.9646 0.2621
vn -0.0960 -0.9948 0.0335
vn -0.1743 -0.9714 0.1614
vn -0.2806 -0.7867 -0.5499
vn -0.2378 -0.7742 -0.5865
vn 0.8252 0.1067 0.5547
vn 0.8507 0.0834 0.5189
vn 0.8461 0.4327 0.3112
vn 0.9063 0.3587 0.2233
vn 0.7309 0.6815 0.0355
vn 0.7505 0.6607 0.0139
vn 0.4295 0.9002 0.0724
vn 0.4809 0.8761 0.0343
vn 0.0358 0.8653 -0.5000
vn 0.0382 0.8607 -0.5077
vn 0.1414 -0.8853 0.4431
vn 0.1279 -0.8857 0.4464
vn 0.7921 -0.3401 0.5069
vn 0.5343 -0.6280 -0.5658
vn 0.5356 -0.6507 -0.5382
vn 0.0379 -0.9720 0.2317
vn 0.1270 -0.9852 0.1154
vn -0.1729 -0.7937 -0.5832
vn -0.1810 -0.8057 -0.5640
vn 0.9726 0.0531 0.2263
vn 0.9535 0.1019 0.2836
vn 0.9271 0.3660 0.0806
vn 0.9341 0.3508 0.0668
vn 0.7505 0.6608 0.0104
vn 0.7656 0.6433 -0.0039
vn 0.4860 0.8739 -0.0092
vn 0.4996 0.8659 -0.0235
vn 0.9114 -0.3504 0.2158
vn 0.9377 -0.3145 0.1480
vn 0.2788 -0.9525 0.1228
vn 0.1012 -0.9800 0.1715
vn 0.7619 -0.6457 -0.0502
vn 0.8290 -0.5544 -0.0732
vn -0.0082 -0.9688 0.2479
vn 0.2264 -0.9649 0.1330
vn 0.2059 -0.9759 0.0727
vn 0.1227 -0.9903 0.0646
vn 0.1232 -0.9782 0.1674
vn 0.2394 -0.9707 -0.0226
vn 0.9948 0.0873 0.0523
vn 0.9940 0.0932 0.0567
vn 0.9354 0.3536 -0.0002
vn 0.9387 0.3448 -0.0075
vn 0.7638 0.6439 -0.0444
vn 0.7824 0.6191 -0.0681
vn 0.4330 0.7441 -0.5088
vn 0.4339 0.7396 -0.5146
vn 0.9535 -0.3000 -0.0289
vn 0.9634 -0.2589 -0.0695
vn 0.9488 -0.3156 -0.0162
vn 0.9363 -0.3492 0.0375
vn 0.2515 -0.9614 0.1120
vn 0.5681 -0.8228 -0.0189
vn 0.1920 -0.7928 -0.5784
vn 0.1875 -0.8387 -0.5114
vn 0.9950 0.0960 -0.0280
vn 0.9931 0.1165 -0.0115
vn 0.9379 0.3455 -0.0317
vn 0.9410 0.3364 -0.0374
vn 0.6641 0.5430 -0.5139
vn 0.6664 0.5632 -0.4886
vn 0.9351 -0.3495 0.0590
vn 0.9534 -0.2999 -0.0321
vn 0.5609 -0.8277 -0.0189
vn 0.7623 -0.6460 -0.0394
vn 0.6802 -0.7312 -0.0524
vn 0.5670 -0.8236 -0.0107
vn 0.6374 -0.7678 -0.0644
vn 0.9928 0.1104 -0.0459
vn 0.9934 0.1036 -0.0494
vn 0.9374 0.3407 -0.0716
vn 0.9493 0.2943 -0.1106
s 0
usemtl Material__1
f 1//1 2//1 3//1
f 4//2 1//2 3//2
f 5//3 6//3 7//3
f 7//4 8//4 5//4
f 8//5 7//5 9//5
f 9//6 10//6 8//6
f 10//7 9//7 11//7
f 11//8 12//8 10//8
f 13//9 14//9 6//9
f 6//10 5//10 13//10
f 6//11 14//11 15//11
f 15//12 16//12 6//12
f 16//13 15//13 17//13
f 16//14 17//14 7//14
f 7//15 6//15 16//15
f 9//16 7//16 17//16
f 17//17 18//17 9//17
f 11//18 9//18 18//18
f 18//19 19//19 11//19
f 19//20 18//20 17//20
f 20//21 13//21 5//21
f 5//22 21//22 20//22
f 21//23 5//23 8//23
f 8//24 22//24 21//24
f 22//25 8//25 10//25
f 10//26 23//26 22//26
f 23//27 10//27 12//27
f 12//28 24//28 23//28
f 12//29 11//29 25//29
f 25//30 26//30 12//30
f 17//31 15//31 27//31
f 27//32 28//32 17//32
f 25//33 11//33 19//33
f 19//34 29//34 25//34
f 29//35 19//35 17//35
f 17//36 28//36 29//36
f 30//37 20//37 21//37
f 21//38 31//38 30//38
f 31//39 21//39 22//39
f 22//40 32//40 31//40
f 32//41 22//41 23//41
f 23//42 33//42 32//42
f 33//43 23//43 24//43
f 24//44 34//44 33//44
f 24//45 12//45 26//45
f 26//46 35//46 24//46
f 36//47 30//47 31//47
f 31//48 37//48 36//48
f 38//49 39//49 40//49
f 40//50 41//50 38//50
f 37//51 31//51 32//51
f 32//52 42//52 37//52
f 42//53 32//53 33//53
f 33//54 43//54 42//54
f 43//55 33//55 34//55
f 34//56 44//56 43//56
f 42//57 43//57 37//57
f 43//58 44//58 37//58
f 34//59 24//59 35//59
f 35//60 45//60 34//60
f 26//61 25//61 46//61
f 46//62 47//62 26//62
f 28//63 27//63 48//63
f 48//64 49//64 28//64
f 46//65 25//65 29//65
f 29//66 50//66 46//66
f 50//67 29//67 28//67
f 28//68 49//68 50//68
f 51//69 36//69 37//69
f 37//70 52//70 51//70
f 44//71 34//71 45//71
f 45//72 53//72 44//72
f 37//73 44//73 53//73
f 53//74 52//74 37//74
f 35//75 26//75 47//75
f 47//76 54//76 35//76
f 47//77 46//77 55//77
f 55//78 56//78 47//78
f 49//79 48//79 57//79
f 57//80 58//80 49//80
f 55//81 46//81 50//81
f 50//82 59//82 55//82
f 59//83 50//83 49//83
f 49//84 60//84 59//84
f 45//85 35//85 54//85
f 54//86 61//86 45//86
f 54//87 47//87 56//87
f 56//88 62//88 54//88
f 56//89 55//89 63//89
f 63//90 64//90 56//90
f 58//91 57//91 65//91
f 65//92 66//92 58//92
f 60//93 49//93 58//93
f 58//94 67//94 60//94
f 63//95 55//95 59//95
f 59//96 68//96 63//96
f 68//97 59//97 60//97
f 60//98 69//98 68//98
f 70//99 51//99 52//99
f 52//100 71//100 70//100
f 53//101 45//101 61//101
f 61//102 72//102 53//102
f 73//103 74//103 38//103
f 38//104 41//104 73//104
f 52//105 53//105 72//105
f 72//106 71//106 52//106
f 61//107 54//107 62//107
f 62//108 75//108 61//108
f 62//109 56//109 64//109
f 64//110 76//110 62//110
f 64//111 63//111 77//111
f 77//112 78//112 64//112
f 66//113 65//113 79//113
f 79//114 80//114 66//114
f 67//115 58//115 66//115
f 66//116 81//116 67//116
f 69//117 60//117 67//117
f 67//118 82//118 69//118
f 77//119 63//119 68//119
f 68//120 83//120 77//120
f 83//121 68//121 69//121
f 69//122 84//122 83//122
f 72//123 61//123 75//123
f 75//124 85//124 72//124
f 71//125 72//125 85//125
f 85//126 86//126 71//126
f 87//127 70//127 71//127
f 71//128 86//128 87//128
f 75//129 62//129 76//129
f 76//130 88//130 75//130
f 76//131 64//131 78//131
f 78//132 89//132 76//132
f 78//133 77//133 90//133
f 90//134 91//134 78//134
f 80//135 79//135 92//135
f 92//136 93//136 80//136
f 81//137 66//137 80//137
f 80//138 94//138 81//138
f 39//139 95//139 96//139
f 96//140 40//140 39//140
f 82//141 67//141 81//141
f 81//142 97//142 82//142
f 84//143 69//143 82//143
f 82//144 98//144 84//144
f 90//145 77//145 83//145
f 83//146 99//146 90//146
f 99//147 83//147 84//147
f 84//148 100//148 99//148
f 101//149 87//149 86//149
f 86//150 102//150 101//150
f 85//151 75//151 88//151
f 88//152 103//152 85//152
f 86//153 85//153 103//153
f 103//154 102//154 86//154
f 104//155 105//155 39//155
f 39//156 38//156 104//156
f 88//157 76//157 89//157
f 89//158 106//158 88//158
f 89//159 78//159 91//159
f 91//160 107//160 89//160
f 91//161 90//161 108//161
f 108//162 109//162 91//162
f 94//163 80//163 93//163
f 93//164 110//164 94//164
f 97//165 81//165 94//165
f 94//166 111//166 97//166
f 98//167 82//167 97//167
f 97//168 112//168 98//168
f 100//169 84//169 98//169
f 98//170 113//170 100//170
f 108//171 90//171 99//171
f 99//172 114//172 108//172
f 114//173 99//173 100//173
f 100//174 115//174 114//174
f 116//175 101//175 102//175
f 102//176 117//176 116//176
f 103//177 88//177 106//177
f 106//178 118//178 103//178
f 102//179 103//179 118//179
f 118//180 119//180 102//180
f 106//181 89//181 107//181
f 107//182 120//182 106//182
f 107//183 91//183 109//183
f 109//184 121//184 107//184
f 93//185 92//185 122//185
f 122//186 123//186 93//186
f 111//187 94//187 110//187
f 110//188 124//188 111//188
f 112//189 97//189 111//189
f 111//190 125//190 112//190
f 113//191 98//191 112//191
f 112//192 126//192 113//192
f 115//193 100//193 113//193
f 113//194 127//194 115//194
f 128//195 116//195 117//195
f 117//196 129//196 128//196
f 117//197 102//197 119//197
f 119//198 130//198 117//198
f 118//199 106//199 120//199
f 120//200 131//200 118//200
f 119//201 118//201 131//201
f 131//202 132//202 119//202
f 120//203 107//203 121//203
f 121//204 133//204 120//204
f 134//205 135//205 136//205
f 136//206 137//206 134//206
f 138//207 135//207 134//207
f 139//208 140//208 74//208
f 74//209 73//209 139//209
f 123//210 122//210 135//210
f 135//211 138//211 123//211
f 110//212 93//212 123//212
f 123//213 141//213 110//213
f 125//214 111//214 124//214
f 124//215 142//215 125//215
f 126//216 112//216 125//216
f 125//217 143//217 126//217
f 127//218 113//218 126//218
f 126//219 144//219 127//219
f 129//220 117//220 130//220
f 130//221 145//221 129//221
f 130//222 119//222 132//222
f 132//223 146//223 130//223
f 131//224 120//224 133//224
f 133//225 147//225 131//225
f 132//226 131//226 147//226
f 147//227 148//227 132//227
f 74//228 149//228 104//228
f 104//229 38//229 74//229
f 137//230 136//230 150//230
f 150//231 151//231 137//231
f 134//232 137//232 152//232
f 141//233 123//233 138//233
f 138//234 153//234 141//234
f 124//235 110//235 141//235
f 141//236 154//236 124//236
f 143//237 125//237 142//237
f 142//238 155//238 143//238
f 144//239 126//239 143//239
f 143//240 156//240 144//240
f 150//241 157//241 158//241
f 158//242 151//242 150//242
f 159//243 128//243 129//243
f 129//244 160//244 159//244
f 145//245 130//245 146//245
f 146//246 161//246 145//246
f 146//247 132//247 148//247
f 148//248 162//248 146//248
f 152//249 137//249 151//249
f 151//250 163//250 152//250
f 138//251 134//251 152//251
f 152//252 164//252 138//252
f 154//253 141//253 153//253
f 153//254 165//254 154//254
f 142//255 124//255 154//255
f 154//256 166//256 142//256
f 156//257 143//257 155//257
f 155//258 167//258 156//258
f 158//259 157//259 168//259
f 168//260 169//260 158//260
f 151//261 158//261 163//261
f 95//262 170//262 171//262
f 171//263 96//263 95//263
f 160//264 129//264 145//264
f 145//265 172//265 160//265
f 161//266 146//266 162//266
f 162//267 173//267 161//267
f 164//268 152//268 163//268
f 163//269 174//269 164//269
f 153//270 138//270 164//270
f 164//271 175//271 153//271
f 166//272 154//272 165//272
f 165//273 176//273 166//273
f 155//274 142//274 166//274
f 166//275 177//275 155//275
f 163//276 158//276 169//276
f 169//277 174//277 163//277
f 169//278 168//278 178//278
f 178//279 2//279 169//279
f 105//280 179//280 95//280
f 95//281 39//281 105//281
f 180//282 159//282 160//282
f 160//283 3//283 180//283
f 178//284 180//284 3//284
f 3//285 2//285 178//285
f 172//286 145//286 161//286
f 161//287 170//287 172//287
f 175//288 164//288 174//288
f 174//289 181//289 175//289
f 165//290 153//290 175//290
f 175//291 182//291 165//291
f 177//292 166//292 176//292
f 176//293 140//293 177//293
f 167//294 155//294 177//294
f 177//295 183//295 167//295
f 184//296 1//296 105//296
f 105//297 104//297 184//297
f 174//298 169//298 2//298
f 2//299 181//299 174//299
f 3//300 160//300 172//300
f 172//301 179//301 3//301
f 170//302 161//302 173//302
f 173//303 171//303 170//303
f 182//304 175//304 181//304
f 181//305 184//305 182//305
f 176//306 165//306 182//306
f 182//307 149//307 176//307
f 183//308 177//308 140//308
f 140//309 139//309 183//309
f 2//310 1//310 181//310
f 1//311 184//311 181//311
f 4//312 3//312 179//312
f 179//313 105//313 4//313
f 1//314 4//314 105//314
f 179//315 172//315 170//315
f 170//316 95//316 179//316
f 149//317 182//317 184//317
f 184//318 104//318 149//318
f 140//319 176//319 149//319
f 149//320 74//320 140//320
