# Blender 4.2.0
# www.blender.org
mtllib NECK_Y.mtl
o object__0
v 0.000000 0.045020 -0.020040
v 0.011650 0.043490 -0.020030
v 0.011650 0.043440 -0.080030
v 0.000000 0.044980 -0.080040
v 0.022500 0.039000 -0.020030
v 0.022500 0.038950 -0.080030
v 0.031820 0.031840 -0.020030
v 0.031820 0.031800 -0.080030
v 0.038970 0.022520 -0.020020
v 0.038970 0.022480 -0.080020
v 0.043470 0.011670 -0.020010
v 0.043470 0.011620 -0.080010
v 0.045000 0.000020 -0.020000
v 0.045000 -0.000020 -0.080000
v 0.043470 -0.011620 -0.019990
v 0.043470 -0.011670 -0.079990
v 0.038970 -0.022480 -0.019980
v 0.038970 -0.022520 -0.079980
v 0.031820 -0.031800 -0.019970
v 0.031820 -0.031840 -0.079970
v 0.022500 -0.038950 -0.019970
v 0.022500 -0.039000 -0.079970
v 0.011650 -0.043440 -0.019970
v 0.011650 -0.043490 -0.079970
v 0.000000 -0.044980 -0.019960
v 0.000000 -0.045020 -0.079960
v -0.011650 -0.043440 -0.019970
v -0.011650 -0.043490 -0.079970
v -0.022500 -0.038950 -0.019970
v -0.022500 -0.039000 -0.079970
v -0.031820 -0.031800 -0.019970
v -0.031820 -0.031840 -0.079970
v -0.038970 -0.022480 -0.019980
v -0.038970 -0.022520 -0.079980
v -0.043470 -0.011620 -0.019990
v -0.043470 -0.011670 -0.079990
v -0.045000 0.000020 -0.020000
v -0.045000 -0.000020 -0.080000
v -0.043470 0.011670 -0.020010
v -0.043470 0.011620 -0.080010
v -0.038970 0.022520 -0.020020
v -0.038970 0.022480 -0.080020
v -0.031820 0.031840 -0.020030
v -0.031820 0.031800 -0.080030
v -0.022500 0.039000 -0.020030
v -0.022500 0.038950 -0.080030
v -0.011650 0.043490 -0.020030
v -0.011650 0.043440 -0.080030
v 0.000000 0.000020 -0.020000
v 0.000000 -0.000020 -0.080000
vn 0.1306 0.9914 -0.0007
vn 0.3824 0.9240 -0.0008
vn 0.6089 0.7932 -0.0006
vn 0.7934 0.6087 -0.0004
vn 0.9238 0.3830 -0.0003
vn 0.9915 0.1303 -0.0001
vn 0.9915 -0.1303 0.0001
vn 0.9238 -0.3830 0.0003
vn 0.7934 -0.6087 0.0004
vn 0.6089 -0.7932 0.0006
vn 0.3824 -0.9240 0.0008
vn 0.1306 -0.9914 0.0007
vn -0.1306 -0.9914 0.0007
vn -0.3824 -0.9240 0.0008
vn -0.6089 -0.7932 0.0006
vn -0.7934 -0.6087 0.0004
vn -0.9238 -0.3830 0.0003
vn -0.9915 -0.1303 0.0001
vn -0.9915 0.1303 -0.0001
vn -0.9238 0.3830 -0.0003
vn -0.7934 0.6087 -0.0004
vn -0.6089 0.7932 -0.0006
vn -0.3824 0.9240 -0.0008
vn -0.1306 0.9914 -0.0007
vn -0.0007 0.0009 1.0000
vn 0.0003 0.0006 1.0000
vn 0.0004 0.0005 1.0000
vn -0.0001 0.0010 1.0000
vn -0.0000 0.0009 1.0000
vn 0.0001 0.0010 1.0000
vn -0.0004 0.0005 1.0000
vn -0.0003 0.0006 1.0000
vn 0.0007 0.0009 1.0000
vn 0.0007 -0.0009 -1.0000
vn -0.0003 -0.0006 -1.0000
vn -0.0004 -0.0005 -1.0000
vn 0.0001 -0.0010 -1.0000
vn -0.0000 -0.0009 -1.0000
vn -0.0001 -0.0010 -1.0000
vn 0.0004 -0.0005 -1.0000
vn 0.0003 -0.0006 -1.0000
vn -0.0007 -0.0009 -1.0000
vt 1.000000 0.000000
vt 0.958330 0.000000
vt 0.958330 1.000000
vt 1.000000 1.000000
vt 0.916670 0.000000
vt 0.916670 1.000000
vt 0.875000 0.000000
vt 0.875000 1.000000
vt 0.833330 0.000000
vt 0.833330 1.000000
vt 0.791670 0.000000
vt 0.791670 1.000000
vt 0.750000 0.000000
vt 0.750000 1.000000
vt 0.708330 0.000000
vt 0.708330 1.000000
vt 0.666670 0.000000
vt 0.666670 1.000000
vt 0.625000 0.000000
vt 0.625000 1.000000
vt 0.583330 0.000000
vt 0.583330 1.000000
vt 0.541670 0.000000
vt 0.541670 1.000000
vt 0.500000 0.000000
vt 0.500000 1.000000
vt 0.458330 0.000000
vt 0.458330 1.000000
vt 0.416670 0.000000
vt 0.416670 1.000000
vt 0.375000 0.000000
vt 0.375000 1.000000
vt 0.333330 0.000000
vt 0.333330 1.000000
vt 0.291670 0.000000
vt 0.291670 1.000000
vt 0.250000 0.000000
vt 0.250000 1.000000
vt 0.208330 0.000000
vt 0.208330 1.000000
vt 0.166670 0.000000
vt 0.166670 1.000000
vt 0.125000 0.000000
vt 0.125000 1.000000
vt 0.083330 0.000000
vt 0.083330 1.000000
vt 0.041670 0.000000
vt 0.041670 1.000000
vt 0.000000 0.000000
vt 0.000000 1.000000
vt 0.629410 0.017040
vt 0.500000 0.500000
vt 0.750000 0.066990
vt 0.853550 0.146450
vt 0.933010 0.250000
vt 0.982960 0.370590
vt 1.000000 0.500000
vt 0.982960 0.629410
vt 0.933010 0.750000
vt 0.853550 0.853550
vt 0.750000 0.933010
vt 0.629410 0.982960
vt 0.370590 0.982960
vt 0.250000 0.933010
vt 0.146450 0.853550
vt 0.066990 0.750000
vt 0.017040 0.629410
vt 0.000000 0.500000
vt 0.017040 0.370590
vt 0.066990 0.250000
vt 0.146450 0.146450
vt 0.250000 0.066990
vt 0.370590 0.017040
s 0
usemtl Material__1
f 1/1/1 2/2/1 3/3/1 4/4/1
f 2/2/2 5/5/2 6/6/2 3/3/2
f 5/5/3 7/7/3 8/8/3 6/6/3
f 7/7/4 9/9/4 10/10/4 8/8/4
f 9/9/5 11/11/5 12/12/5 10/10/5
f 11/11/6 13/13/6 14/14/6 12/12/6
f 13/13/7 15/15/7 16/16/7 14/14/7
f 15/15/8 17/17/8 18/18/8 16/16/8
f 17/17/9 19/19/9 20/20/9 18/18/9
f 19/19/10 21/21/10 22/22/10 20/20/10
f 21/21/11 23/23/11 24/24/11 22/22/11
f 23/23/12 25/25/12 26/26/12 24/24/12
f 25/25/13 27/27/13 28/28/13 26/26/13
f 27/27/14 29/29/14 30/30/14 28/28/14
f 29/29/15 31/31/15 32/32/15 30/30/15
f 31/31/16 33/33/16 34/34/16 32/32/16
f 33/33/17 35/35/17 36/36/17 34/34/17
f 35/35/18 37/37/18 38/38/18 36/36/18
f 37/37/19 39/39/19 40/40/19 38/38/19
f 39/39/20 41/41/20 42/42/20 40/40/20
f 41/41/21 43/43/21 44/44/21 42/42/21
f 43/43/22 45/45/22 46/46/22 44/44/22
f 45/45/23 47/47/23 48/48/23 46/46/23
f 47/47/24 1/49/24 4/50/24 48/48/24
f 2/51/25 1/25/25 49/52/25
f 49/52/26 5/53/26 2/51/26
f 49/52/27 7/54/27 5/53/27
f 49/52/28 9/55/28 7/54/28
f 49/52/29 11/56/29 9/55/29
f 49/52/29 13/57/29 11/56/29
f 49/52/29 15/58/29 13/57/29
f 49/52/29 17/59/29 15/58/29
f 49/52/30 19/60/30 17/59/30
f 49/52/31 21/61/31 19/60/31
f 49/52/32 23/62/32 21/61/32
f 49/52/33 25/26/33 23/62/33
f 49/52/25 27/63/25 25/26/25
f 49/52/26 29/64/26 27/63/26
f 49/52/27 31/65/27 29/64/27
f 49/52/28 33/66/28 31/65/28
f 49/52/29 35/67/29 33/66/29
f 49/52/29 37/68/29 35/67/29
f 49/52/29 39/69/29 37/68/29
f 49/52/29 41/70/29 39/69/29
f 49/52/30 43/71/30 41/70/30
f 49/52/31 45/72/31 43/71/31
f 49/52/32 47/73/32 45/72/32
f 49/52/33 1/25/33 47/73/33
f 50/52/34 4/25/34 3/51/34
f 50/52/35 3/51/35 6/53/35
f 50/52/36 6/53/36 8/54/36
f 50/52/37 8/54/37 10/55/37
f 50/52/38 10/55/38 12/56/38
f 50/52/38 12/56/38 14/57/38
f 50/52/38 14/57/38 16/58/38
f 50/52/38 16/58/38 18/59/38
f 50/52/39 18/59/39 20/60/39
f 50/52/40 20/60/40 22/61/40
f 50/52/41 22/61/41 24/62/41
f 50/52/42 24/62/42 26/26/42
f 50/52/34 26/26/34 28/63/34
f 50/52/35 28/63/35 30/64/35
f 50/52/36 30/64/36 32/65/36
f 50/52/37 32/65/37 34/66/37
f 50/52/38 34/66/38 36/67/38
f 50/52/38 36/67/38 38/68/38
f 50/52/38 38/68/38 40/69/38
f 50/52/38 40/69/38 42/70/38
f 50/52/39 42/70/39 44/71/39
f 50/52/40 44/71/40 46/72/40
f 50/52/41 46/72/41 48/73/41
f 50/52/42 48/73/42 4/25/42
